<mxfile host="app.diagrams.net" modified="2023-09-04T06:47:48.610Z" agent="Mozilla/5.0 (Macintosh; Intel Mac OS X 10_15_7) AppleWebKit/537.36 (KHTML, like Gecko) Chrome/116.0.0.0 Safari/537.36" version="21.7.2" etag="e4h9P99lNQhfH73cVyuU" type="github">
  <diagram name="Page-1" id="7h_FdC4poRzCpEX-U66h">
    <mxGraphModel>
      <root>
        <mxCell id="0" />
        <mxCell id="1" parent="0" />
      </root>
    </mxGraphModel>
  </diagram>
</mxfile>
